# xmcd CD database file
#
# Track frame offsets:
#	150
#	18537
#	34050
#	57386
#	72955
#	92059
#	110227
#	131182
#	146442
#
# Disc length: 2120 seconds
#
# Revision: 0
# Processed by: cddbd v1.5.2PL0 Copyright (c) Steve Scherf et al.
# Submitted via: CDex 1.70beta3
#
DISCID=86084609
DTITLE=Sayo Kurihara - Sunny Side Jazz Lounge
DYEAR=2009
DGENRE=Jazz
TTITLE0=On the sunny side of the street
TTITLE1=Bye bye blackbird
TTITLE2=You are my sunshine
TTITLE3=You and the night and the music
TTITLE4=Day by day
TTITLE5=Route66
TTITLE6=Angel eyes
TTITLE7=Fly me to the moon
TTITLE8=L-O-V-E
EXTD=YEAR: 2009
EXTT0=
EXTT1=
EXTT2=
EXTT3=
EXTT4=
EXTT5=
EXTT6=
EXTT7=
EXTT8=
PLAYORDER=
